<svg xmlns="http://www.w3.org/2000/svg" width="40.425" height="40.425" viewBox="0 0 40.425 40.425"><defs><style>.a{fill:#ff5800;}</style></defs><g transform="translate(-691.785 -478.788)"><g transform="translate(691.786 478.788)"><path class="a" d="M40.239,37.058H36.209V13.206l1.226.5a1.184,1.184,0,1,0,.9-2.191l-2.127-.874V9.1l1.226.5a1.184,1.184,0,1,0,.9-2.191L18.1-.909a1.184,1.184,0,1,0-.9,2.191l1.258.517V3.348L18.1,3.2a1.184,1.184,0,0,0-.9,2.191l1.257.517V8.268l-10.063,5.2a3.989,3.989,0,0,0-2.164,3.557V37.058H2.182a1.184,1.184,0,0,0,0,2.369H40.239a1.184,1.184,0,0,0,0-2.369ZM20.824,2.772l13.017,5.35v1.55L20.824,4.321ZM14.71,37.058V33.291a1.184,1.184,0,0,0-2.369,0v3.767H8.6V29.729h4.929a1.184,1.184,0,1,0,0-2.369H8.6V25.381h4.929a1.184,1.184,0,1,0,0-2.369H8.6V20.971h4.929a1.184,1.184,0,0,0,0-2.369H8.6V17.029a1.629,1.629,0,0,1,.883-1.453l8.975-4.642V37.058Zm16.175,0V33.291a1.184,1.184,0,0,0-2.369,0v3.767H26.148V33.291a1.184,1.184,0,0,0-2.369,0v3.767H20.824V6.882l13.017,5.35V37.058Z" transform="translate(-0.998 0.999)"/><path class="a" d="M289.92,251.544a1.184,1.184,0,0,0,1.184-1.184v-2.4a1.184,1.184,0,1,0-2.369,0v2.4A1.184,1.184,0,0,0,289.92,251.544Z" transform="translate(-265.973 -227.174)"/><path class="a" d="M350.068,251.544a1.184,1.184,0,0,0,1.184-1.184v-2.4a1.184,1.184,0,1,0-2.369,0v2.4A1.184,1.184,0,0,0,350.068,251.544Z" transform="translate(-321.363 -227.174)"/><path class="a" d="M290.123,327.118a1.184,1.184,0,0,0-1.184,1.184v2.4a1.184,1.184,0,0,0,2.369,0v-2.4A1.184,1.184,0,0,0,290.123,327.118Z" transform="translate(-266.16 -301.161)"/><path class="a" d="M350.267,327.118a1.184,1.184,0,0,0-1.184,1.184v2.4a1.184,1.184,0,0,0,2.369,0v-2.4A1.184,1.184,0,0,0,350.267,327.118Z" transform="translate(-321.546 -301.161)"/><path class="a" d="M290.021,171.47a1.184,1.184,0,0,0,1.184-1.184v-2.4a1.184,1.184,0,0,0-2.369,0v2.4A1.184,1.184,0,0,0,290.021,171.47Z" transform="translate(-266.066 -153.434)"/><path class="a" d="M350.169,171.47a1.185,1.185,0,0,0,1.184-1.184v-2.4a1.184,1.184,0,1,0-2.369,0v2.4A1.184,1.184,0,0,0,350.169,171.47Z" transform="translate(-321.456 -153.434)"/></g></g></svg>