<svg xmlns="http://www.w3.org/2000/svg" width="32" height="25.143" viewBox="0 0 32 25.143"><defs><style>.a{fill:#ff5800;}</style></defs><g transform="translate(0 -4.143)"><path class="a" d="M32,7V26.429a2.868,2.868,0,0,1-2.857,2.857H2.857a2.751,2.751,0,0,1-2.018-.84A2.751,2.751,0,0,1,0,26.429V7A2.754,2.754,0,0,1,.839,4.982a2.754,2.754,0,0,1,2.018-.839H29.143A2.866,2.866,0,0,1,32,7Zm-2.285.661V7.224c0-.054,0-.131-.01-.233a.484.484,0,0,0-.053-.223c-.03-.047-.062-.1-.1-.161a.324.324,0,0,0-.161-.133.627.627,0,0,0-.25-.045H2.857A.581.581,0,0,0,2.286,7a6.25,6.25,0,0,0,2.625,5.071q3.446,2.715,7.16,5.661l.625.527c.346.292.619.515.822.67s.467.342.8.562a4.684,4.684,0,0,0,.9.491,2.121,2.121,0,0,0,.768.161h.036a2.121,2.121,0,0,0,.768-.161,4.749,4.749,0,0,0,.9-.491q.49-.33.794-.562c.2-.155.476-.378.822-.67l.625-.527q3.712-2.946,7.161-5.661a8.4,8.4,0,0,0,1.794-2.062A4.458,4.458,0,0,0,29.715,7.661Zm0,18.768V12.714a10.548,10.548,0,0,1-1.233,1.179q-4.786,3.68-7.607,6.036-.911.766-1.482,1.2a8.252,8.252,0,0,1-1.545.866,4.476,4.476,0,0,1-1.83.438h-.036a4.472,4.472,0,0,1-1.83-.438,8.252,8.252,0,0,1-1.545-.866q-.572-.429-1.482-1.2Q8.3,17.571,3.518,13.893a10.384,10.384,0,0,1-1.232-1.179V26.429A.581.581,0,0,0,2.857,27H29.143a.581.581,0,0,0,.572-.571Z"/></g></svg>