<svg xmlns="http://www.w3.org/2000/svg" width="26.571" height="31" viewBox="0 0 26.571 31"><defs><style>.a{fill:#ff5800;}</style></defs><g transform="translate(0 -0.429)"><path class="a" d="M20.776,13.991a7.5,7.5,0,0,1,1.548.657,6.851,6.851,0,0,1,1.54,1.263,8.147,8.147,0,0,1,1.375,2,12.518,12.518,0,0,1,.952,2.976,20.164,20.164,0,0,1,.38,4.091,6.527,6.527,0,0,1-1.729,4.558,5.449,5.449,0,0,1-4.17,1.9H5.9a5.447,5.447,0,0,1-4.169-1.9A6.523,6.523,0,0,1,0,24.976a20.164,20.164,0,0,1,.38-4.091,12.61,12.61,0,0,1,.952-2.976,8.123,8.123,0,0,1,1.376-2,6.848,6.848,0,0,1,1.539-1.263A7.5,7.5,0,0,1,5.8,13.991a8.781,8.781,0,0,1-.666-8.139A8.765,8.765,0,0,1,9.852,1.129a8.773,8.773,0,0,1,6.868,0,8.768,8.768,0,0,1,4.722,4.723,8.773,8.773,0,0,1-.666,8.139Zm-.1,15.223a3.338,3.338,0,0,0,2.6-1.236,4.407,4.407,0,0,0,1.082-3A13.233,13.233,0,0,0,23,18.454a4.536,4.536,0,0,0-3.9-2.508,8.558,8.558,0,0,1-5.812,2.2,8.56,8.56,0,0,1-5.813-2.2,4.537,4.537,0,0,0-3.9,2.508,13.233,13.233,0,0,0-1.358,6.522,4.411,4.411,0,0,0,1.081,3,3.343,3.343,0,0,0,2.6,1.236ZM17.982,4.589a6.4,6.4,0,0,0-4.7-1.946,6.4,6.4,0,0,0-4.7,1.946,6.4,6.4,0,0,0-1.946,4.7,6.4,6.4,0,0,0,1.946,4.7,6.4,6.4,0,0,0,4.7,1.947,6.4,6.4,0,0,0,4.7-1.947,6.4,6.4,0,0,0,1.947-4.7A6.4,6.4,0,0,0,17.982,4.589Z"/></g></svg>