<svg xmlns="http://www.w3.org/2000/svg" width="60.692" height="60.693" viewBox="0 0 60.692 60.693"><defs><style>.a{fill:#fff;}</style></defs><g transform="translate(-212.742 -65.266)"><path class="a" d="M273.435,95.613a30.347,30.347,0,1,1-51.779-21.432,30.347,30.347,0,0,1,51.779,21.432ZM225.892,85.5h-7.081a23.655,23.655,0,0,0-1.9,8.093h7.966A62.3,62.3,0,0,1,225.892,85.5Zm-8.978,12.139a23.655,23.655,0,0,0,1.9,8.093h7.081a62.3,62.3,0,0,1-1.012-8.093Zm4.046-16.185h6.07a32.1,32.1,0,0,1,4.678-9.483A25.4,25.4,0,0,0,220.96,81.451Zm10.748,37.807a32.05,32.05,0,0,1-4.678-9.484h-6.07A25.373,25.373,0,0,0,231.708,119.258ZM230.064,85.5a47.97,47.97,0,0,0-1.138,8.093h12.139V85.5Zm0,20.232h11V97.636H228.926A47.97,47.97,0,0,0,230.064,105.729Zm5.5-32.181a26.513,26.513,0,0,0-4.362,7.9h9.863V69.692A10.96,10.96,0,0,0,235.564,73.548ZM231.2,109.774a26.439,26.439,0,0,0,4.362,7.9,10.944,10.944,0,0,0,5.5,3.857v-11.76Zm23.772-28.323a26.58,26.58,0,0,0-4.363-7.9,10.966,10.966,0,0,0-5.5-3.856V81.451ZM245.111,85.5V93.59H257.25a48.28,48.28,0,0,0-1.138-8.093Zm11,20.232a48.28,48.28,0,0,0,1.138-8.093H245.111v8.093Zm-5.5,11.948a26.505,26.505,0,0,0,4.363-7.9h-9.863v11.76A10.95,10.95,0,0,0,250.611,117.677Zm3.857-45.709a32.2,32.2,0,0,1,4.678,9.483h6.07A25.428,25.428,0,0,0,254.468,71.968Zm10.748,37.806h-6.07a32.147,32.147,0,0,1-4.678,9.484A25.4,25.4,0,0,0,265.216,109.774Zm4.046-16.184a23.748,23.748,0,0,0-1.9-8.093h-7.081A62.646,62.646,0,0,1,261.3,93.59Zm-8.978,12.139h7.081a23.748,23.748,0,0,0,1.9-8.093H261.3A62.646,62.646,0,0,1,260.284,105.729Z"/></g></svg>