<svg xmlns="http://www.w3.org/2000/svg" width="98" height="99" viewBox="0 0 98 99"><defs><style>.a{fill:#fff;}</style></defs><g transform="translate(-25.319 -534.804)"><path class="a" d="M395.638,477.976a39.442,39.442,0,0,1,12.226-13.028l-10.746-4.2a49.257,49.257,0,0,0,0,74l10.771-4.2a39.394,39.394,0,0,1-12.247-52.565" transform="translate(-355.038 86.557)"/><path class="a" d="M460.947,459.268a39.735,39.735,0,0,1,19.8,31.71l9.023-7.187A49.695,49.695,0,0,0,425.3,446.567l-1.712,11.409a39.734,39.734,0,0,1,37.358,1.292" transform="translate(-366.455 90.81)"/><path class="a" d="M480.745,514.3a39.781,39.781,0,0,1-57.156,32.988l1.72,11.44a49.724,49.724,0,0,0,64.465-37.234Z" transform="translate(-366.455 72.519)"/></g></svg>