<svg xmlns="http://www.w3.org/2000/svg" width="491" height="187.832" viewBox="0 0 491 187.832"><defs><style>.a{fill:none;}.b{fill:#fff;}</style></defs><g transform="translate(-1429 -0.168)"><rect class="a" width="491" height="187.832" transform="translate(1429 0.168)"/><path class="b" d="M1511.383,124.236h-19.607V62.779h19.607v61.457Zm63.434,0-37.9-31.305,37.9-30.152h-27.68l-35.754,30.152,35.754,31.305Zm89.468-21.42V62.779h-19.607V99.192c0,7.744-2.966,10.05-11.04,10.05H1614.2c-8.074,0-11.039-2.306-11.039-10.05V62.779H1583.55v40.037c0,15.324,8.238,22.573,26.2,22.573h28.175C1656.046,125.389,1664.285,118.14,1664.285,102.816Zm34.93,21.42h-19.607V62.779h19.607v61.457Zm63.6,0-37.9-31.305,37.9-30.152h-27.68l-35.919,30.152,35.754,31.305Zm55.855-61.457h-17.3l-38.555,61.457h22.573l6.426-10.71h36.413l6.426,10.71h22.572Zm-20.1,38.555,11.369-19.607,11.369,19.607Z"/></g></svg>