<svg xmlns="http://www.w3.org/2000/svg" xmlns:xlink="http://www.w3.org/1999/xlink" width="197" height="199" viewBox="0 0 197 199"><defs><style>.a{fill:#fff;}.b{filter:url(#e);}.c{filter:url(#c);}.d{filter:url(#a);}</style><filter id="a" x="0" y="22.858" width="68.33" height="153.284" filterUnits="userSpaceOnUse"><feOffset dy="3" input="SourceAlpha"/><feGaussianBlur stdDeviation="3" result="b"/><feFlood flood-opacity="0.161"/><feComposite operator="in" in2="b"/><feComposite in="SourceGraphic"/></filter><filter id="c" x="57.99" y="0" width="138.997" height="103.904" filterUnits="userSpaceOnUse"><feOffset dy="3" input="SourceAlpha"/><feGaussianBlur stdDeviation="3" result="d"/><feFlood flood-opacity="0.161"/><feComposite operator="in" in2="d"/><feComposite in="SourceGraphic"/></filter><filter id="e" x="57.99" y="95.093" width="139.01" height="103.907" filterUnits="userSpaceOnUse"><feOffset dy="3" input="SourceAlpha"/><feGaussianBlur stdDeviation="3" result="f"/><feFlood flood-opacity="0.161"/><feComposite operator="in" in2="f"/><feComposite in="SourceGraphic"/></filter></defs><g transform="translate(-1324.319 -146.804)"><g class="d" transform="matrix(1, 0, 0, 1, 1324.32, 146.8)"><path class="a" d="M408.3,492.244a72.112,72.112,0,0,1,22.354-23.818L411,460.749a90.053,90.053,0,0,0-.008,135.284l19.693-7.686a72.021,72.021,0,0,1-22.391-96.1" transform="translate(-371.36 -431.89)"/></g><g class="c" transform="matrix(1, 0, 0, 1, 1324.32, 146.8)"><path class="a" d="M491.892,471.921a72.649,72.649,0,0,1,36.2,57.977l16.5-13.14A90.859,90.859,0,0,0,426.72,448.7l-3.131,20.86a72.648,72.648,0,0,1,68.3,2.361" transform="translate(-356.6 -437.99)"/></g><g class="b" transform="matrix(1, 0, 0, 1, 1324.32, 146.8)"><path class="a" d="M528.09,514.3a72.734,72.734,0,0,1-104.5,60.314l3.145,20.916A90.913,90.913,0,0,0,544.6,527.453Z" transform="translate(-356.6 -413.21)"/></g></g></svg>