<svg xmlns="http://www.w3.org/2000/svg" width="39.618" height="19.809" viewBox="0 0 39.618 19.809"><defs><style>.a{fill:#ff5800;}</style></defs><g transform="translate(0)"><path class="a" d="M81.667,105.053l.044-.011.037-.009.042-.015.037-.013.039-.018.037-.018.036-.021.036-.022.037-.027.031-.023c.019-.015.036-.031.053-.048l.009-.008.009-.01c.016-.017.032-.034.048-.052s.016-.022.025-.033.017-.022.025-.034.016-.026.024-.038.013-.021.02-.033.013-.026.019-.04.012-.023.017-.035.01-.026.015-.039.01-.026.014-.039.007-.027.011-.04.007-.026.01-.04.005-.032.007-.048,0-.022,0-.034a.834.834,0,0,0,0-.085V86.107a.853.853,0,0,0-.858-.847H54.458l-.049,0-.039,0-.044.007-.04.008-.041.01-.04.012-.04.014-.037.015-.04.019-.033.018-.039.024-.031.021-.036.027-.032.026-.03.027-.033.033-.016.016-.008.011-.031.038-.022.029-.025.039-.02.032c-.007.013-.013.026-.02.039s-.012.024-.018.036-.011.026-.015.039-.01.025-.014.038-.008.026-.011.039-.008.027-.011.041,0,.026-.007.039-.005.029-.007.044,0,.025,0,.037,0,.032,0,.048,0,.009,0,.014v5.226a.858.858,0,0,0,1.716,0V87.989l7.626,6.671a.865.865,0,0,0-.114.093l-7.512,7.422V96.606a.858.858,0,0,0-1.716,0v1.035H49.191a.848.848,0,1,0,0,1.695h4.432v4.885a.853.853,0,0,0,.858.847H81.5c.028,0,.056,0,.085,0l.039-.006Zm-1.025-2.877-7.513-7.422-.015-.013,5.648-4.734a.84.84,0,0,0,.1-1.194.865.865,0,0,0-1.209-.1L68,96.8,56.743,86.955h23.9v15.221ZM64.064,95.952a.845.845,0,0,0,.15-.2l3.208,2.806a.866.866,0,0,0,1.124.012l3.269-2.741a.853.853,0,0,0,.1.122l7.512,7.422H56.551Z" transform="translate(-42.739 -85.26)"/><path class="a" d="M.868,157.412H15.527a.868.868,0,0,0,0-1.736H.868a.868.868,0,0,0,0,1.736Z" transform="translate(0 -147.738)"/><path class="a" d="M13.993,116.081h6.582a.868.868,0,0,0,0-1.736H13.993a.868.868,0,0,0,0,1.736Z" transform="translate(-11.606 -111.066)"/><path class="a" d="M7.233,226.51H.868a.868.868,0,1,0,0,1.736H7.233a.868.868,0,1,0,0-1.736Z" transform="translate(0 -210.643)"/></g></svg>