<svg xmlns="http://www.w3.org/2000/svg" width="30.814" height="35.216" viewBox="0 0 30.814 35.216"><defs><style>.a{fill:#fff;}</style></defs><g transform="translate(0 0)"><path class="a" d="M119.635,260.063c0-.953-.662-1.522-1.83-1.522a4,4,0,0,0-.969.092v3.062a3.632,3.632,0,0,0,.784.061C118.866,261.756,119.635,261.125,119.635,260.063Z" transform="translate(-111.455 -242.02)"/><path class="a" d="M257.418,259.019a4.883,4.883,0,0,0-1.062.092v6.783a4.254,4.254,0,0,0,.816.047c2.122.015,3.507-1.154,3.507-3.63A2.973,2.973,0,0,0,257.418,259.019Z" transform="translate(-242.192 -242.48)"/><path class="a" d="M60.368,12.6h-.835V8.516a.6.6,0,0,0-.007-.077.683.683,0,0,0-.162-.447L52.655.236l-.005,0a.679.679,0,0,0-.136-.115C52.5.106,52.484.1,52.469.089a.7.7,0,0,0-.135-.057L52.3.02A.673.673,0,0,0,52.141,0H35.654A1.374,1.374,0,0,0,34.29,1.381V12.6h-.835A1.962,1.962,0,0,0,31.5,14.57V24.835a1.962,1.962,0,0,0,1.95,1.974h.835v7.026a1.374,1.374,0,0,0,1.364,1.381H58.168a1.375,1.375,0,0,0,1.364-1.381V26.809h.835a1.962,1.962,0,0,0,1.95-1.974V14.571A1.962,1.962,0,0,0,60.368,12.6ZM35.654,1.381h15.8V8.447a.687.687,0,0,0,.682.691h6.027V12.6H35.654ZM52.4,19.758a5.257,5.257,0,0,1-1.694,4.177,7.247,7.247,0,0,1-4.7,1.331,19.79,19.79,0,0,1-2.615-.153V14.984a20.372,20.372,0,0,1,3.115-.214,6.5,6.5,0,0,1,4.172,1.1A4.585,4.585,0,0,1,52.4,19.758Zm-17.792,5.4V14.984a18.715,18.715,0,0,1,3.114-.214,4.841,4.841,0,0,1,3.114.827,3.027,3.027,0,0,1,1.087,2.387,3.313,3.313,0,0,1-.937,2.448,4.686,4.686,0,0,1-3.311,1.087,5.7,5.7,0,0,1-.786-.046v3.687H34.612Zm23.556,8.3H35.654V26.809H58.168v6.653Zm1.977-16.7H56.229v2.356h3.658v1.9H56.229v4.146H53.918V14.847h6.227Z" transform="translate(-31.504 0)"/></g></svg>