<svg xmlns="http://www.w3.org/2000/svg" width="83" height="62" viewBox="0 0 83 62"><defs><style>.a{fill:#333;}</style></defs><g transform="translate(601.499 118.919)"><path class="a" d="M-484.185-25.645c6.948,0,12.614-4.267,12.614-9.494s-5.65-9.495-12.614-9.495S-496.8-40.367-496.8-35.139-491.133-25.645-484.185-25.645Zm0-15.633v.017c5.059,0,9.241,2.8,9.241,6.122s-4.233,6.122-9.241,6.122-9.242-2.8-9.242-6.122S-489.194-41.279-484.185-41.279Z" transform="translate(-88.813 -62.987)"/><path class="a" d="M-520.167-80.793h-24.62V-98.186c0-11.427-12.693-20.733-28.356-20.733S-601.5-109.613-601.5-98.186v20.55c0,10.525,10.759,19.213,24.62,20.533h.284c1.151.1,2.318.184,3.5.184h52.925A1.67,1.67,0,0,0-518.5-58.59V-79.123A1.67,1.67,0,0,0-520.167-80.793Zm-52.892-34.768c13.761,0,25.02,7.8,25.02,17.393s-11.192,17.392-25.02,17.392-25.02-7.8-25.02-17.392S-586.8-115.561-573.06-115.561Zm25.02,27.132v7.635h-9.675a25.157,25.157,0,0,0,9.591-7.635Zm26.2,28.168h-3.336v-8.454a1.67,1.67,0,0,0-1.668-1.671,1.67,1.67,0,0,0-1.668,1.671v8.471h-6.672v-4.595a1.67,1.67,0,0,0-1.668-1.671,1.67,1.67,0,0,0-1.668,1.671v4.595h-6.672v-4.595a1.67,1.67,0,0,0-1.668-1.671,1.67,1.67,0,0,0-1.668,1.671v4.595H-555.2v-8.471a1.67,1.67,0,0,0-1.668-1.671,1.67,1.67,0,0,0-1.668,1.671v8.471h-6.388v-4.595a1.67,1.67,0,0,0-1.668-1.671,1.67,1.67,0,0,0-1.668,1.671v4.595h-6.672v-4.595a1.67,1.67,0,0,0-1.668-1.671,1.67,1.67,0,0,0-1.668,1.671v4.194C-589.523-62.316-598-69.3-598-77.653V-88.429c4.77,6.533,14.161,10.976,25.02,10.976h51.141Z"/></g></svg>