<svg xmlns="http://www.w3.org/2000/svg" width="72" height="58" viewBox="0 0 72 58"><defs><style>.a{fill:#333;}</style></defs><g transform="translate(-968 -109)"><g transform="translate(968 109)"><g transform="translate(0 0)"><path class="a" d="M230.249,124.337a2.863,2.863,0,0,0-3.636-.341c-4.283,2.919-25.765,17.6-28.074,19.907a8.587,8.587,0,0,0,12.144,12.144c2.309-2.309,16.988-23.791,19.907-28.074A2.863,2.863,0,0,0,230.249,124.337ZM206.635,152a2.862,2.862,0,0,1-4.048-4.047c.9-.886,7-5.236,14.5-10.452C211.871,145,207.521,151.1,206.635,152Z" transform="translate(-169.249 -113.446)"/><path class="a" d="M12.884,102.237l-3.449,1.716a31.191,31.191,0,0,1-1.883-25.9L11.5,79.986a2.738,2.738,0,0,0,1.206.281,2.79,2.79,0,0,0,2.521-1.618,2.876,2.876,0,0,0-1.311-3.8l-3.9-1.909A30.155,30.155,0,0,1,32.969,58.33v4.287a2.794,2.794,0,1,0,5.588,0V58.328a29.364,29.364,0,0,1,9.607,2.582,2.772,2.772,0,0,0,3.7-1.425,2.874,2.874,0,0,0-1.4-3.77,35.248,35.248,0,0,0-39.988,7.47,36.949,36.949,0,0,0-4.415,46.049A2.779,2.779,0,0,0,8.384,110.5a2.74,2.74,0,0,0,1.223-.289l5.728-2.85a2.876,2.876,0,0,0,1.286-3.811A2.77,2.77,0,0,0,12.884,102.237Z" transform="translate(0 -52.499)"/><path class="a" d="M404.226,193.179a2.862,2.862,0,1,0-5.217,2.355,30.813,30.813,0,0,1-1.231,27.763l-3.689-1.757a2.862,2.862,0,0,0-2.461,5.169l6.011,2.862a2.862,2.862,0,0,0,3.61-.993,36.55,36.55,0,0,0,2.978-35.4Z" transform="translate(-335.455 -171.85)"/></g></g></g></svg>