<svg xmlns="http://www.w3.org/2000/svg" width="74" height="60" viewBox="0 0 74 60"><defs><style>.a{fill:#333;}</style></defs><g transform="translate(0 -57.71)"><path class="a" d="M73.811,112.687,62.2,76.839a3.843,3.843,0,0,0-3.657-2.659H46.3a10.874,10.874,0,1,0-18.6,0H15.453A3.843,3.843,0,0,0,11.8,76.839L.189,112.687a3.841,3.841,0,0,0,3.657,5.023H70.153A3.841,3.841,0,0,0,73.811,112.687ZM31.251,68.576a5.749,5.749,0,1,1,6.985,5.6H35.764A5.75,5.75,0,0,1,31.251,68.576Zm.666,36.657-3.322-6.374H27.012v6.374H23.163V89.52h3.849v6.066h1.583l3.256-6.066h4.135L31.74,97.036v.045l4.488,8.153Zm20.242,0H48.948v-.44c0-.329.022-.659.022-.659h-.043a6.525,6.525,0,0,1-4.135,1.362c-4.026,0-7.72-3.01-7.72-8.153a7.958,7.958,0,0,1,8.249-8.087,8.691,8.691,0,0,1,6.048,2.087l-1.848,2.879a6.259,6.259,0,0,0-3.827-1.45c-3.3,0-4.64,2.11-4.64,4.438a4.46,4.46,0,0,0,4.509,4.769,5.384,5.384,0,0,0,3.188-1.142v-1.21H46.529V96.354h5.63v8.88Z" transform="translate(0 0)"/></g></svg>