<svg id="Layer_1" data-name="Layer 1" xmlns="http://www.w3.org/2000/svg" viewBox="0 0 28 28"><defs><style>.cls-1{fill:#cfcfcf;}.cls-2{fill:#6b6b6b;}</style></defs><title>Ions</title><ellipse class="cls-1" cx="20.18" cy="14" rx="4.91" ry="4.33"/><path class="cls-2" d="M20.18,10.56a3.76,3.76,0,0,1,4,3.44,3.76,3.76,0,0,1-4,3.44,3.76,3.76,0,0,1-4-3.44,3.76,3.76,0,0,1,4-3.44m0-1.78A5.53,5.53,0,0,0,14.39,14a5.53,5.53,0,0,0,5.79,5.22c3.2,0,5.8-2.34,5.8-5.22s-2.6-5.22-5.8-5.22Z"/><ellipse class="cls-1" cx="7.82" cy="14" rx="4.91" ry="4.33"/><path class="cls-2" d="M7.82,10.56a3.76,3.76,0,0,1,4,3.44,3.76,3.76,0,0,1-4,3.44A3.76,3.76,0,0,1,3.8,14a3.76,3.76,0,0,1,4-3.44m0-1.78C4.62,8.78,2,11.12,2,14s2.6,5.22,5.8,5.22A5.53,5.53,0,0,0,13.61,14,5.53,5.53,0,0,0,7.82,8.78Z"/><rect class="cls-2" x="12.67" y="11.68" width="3.55" height="2.66"/></svg>