<svg id="Layer_1" data-name="Layer 1" xmlns="http://www.w3.org/2000/svg" viewBox="0 0 28 28"><defs><style>.cls-1{fill:#c7c7c7;}.cls-1,.cls-2,.cls-3{fill-rule:evenodd;}.cls-2{fill:#ffa301;}</style></defs><title>Ions</title><path class="cls-1" d="M14,7.34a12.34,12.34,0,0,1,11.5,8.08l-5.75,2.26a6.11,6.11,0,0,0-11.5,0L2.5,15.42A12.34,12.34,0,0,1,14,7.34Z"/><path class="cls-2" d="M10.73,14.6a6.29,6.29,0,0,0-2.48,3.08L2.5,15.42A12.61,12.61,0,0,1,7.35,9.33Z"/><path class="cls-3" d="M6.3,6.74h0l7.44,13.67a.58.58,0,0,1-.26.79h0a.56.56,0,0,1-.76-.26Z"/></svg>