<svg id="Layer_1" data-name="Layer 1" xmlns="http://www.w3.org/2000/svg" viewBox="0 0 28 28"><defs><style>.cls-1{fill:#c7c7c7;}.cls-1,.cls-2,.cls-3{fill-rule:evenodd;}.cls-2{fill:#9876bb;}</style></defs><title>Ions</title><path class="cls-1" d="M14,7.14a12.35,12.35,0,0,1,11.5,8.08l-5.75,2.27a6.11,6.11,0,0,0-11.5,0L2.5,15.22A12.35,12.35,0,0,1,14,7.14Z"/><path class="cls-2" d="M14,7.14A12,12,0,0,1,20.49,9c0,.51-3,5.51-3.3,5.32A6.09,6.09,0,0,0,14,13.44a6.17,6.17,0,0,0-5.75,4L2.5,15.22A12.35,12.35,0,0,1,14,7.14Z"/><path class="cls-3" d="M21.79,7.16h0L13.9,20.58a.58.58,0,0,1-.81.19h0a.57.57,0,0,1-.17-.79Z"/></svg>