<svg id="Layer_1" data-name="Layer 1" xmlns="http://www.w3.org/2000/svg" viewBox="0 0 28 28"><defs><style>.cls-1{fill:#c7c7c7;}.cls-1,.cls-2,.cls-3{fill-rule:evenodd;}.cls-2{fill:#01c1cf;}</style></defs><title>Ions</title><path class="cls-1" d="M14,8.26a12.34,12.34,0,0,1,11.5,8.08L19.75,18.6a6.11,6.11,0,0,0-11.5,0L2.5,16.34A12.34,12.34,0,0,1,14,8.26Z"/><path class="cls-2" d="M14,8.26h.28c.22.4-.78,6.4-.28,6.3a6.18,6.18,0,0,0-5.75,4L2.5,16.34A12.34,12.34,0,0,1,14,8.26Z"/><path class="cls-3" d="M14.47,6h0l-.6,15.56a.58.58,0,0,1-.62.54h0a.55.55,0,0,1-.52-.62Z"/></svg>