<svg id="Layer_1" data-name="Layer 1" xmlns="http://www.w3.org/2000/svg" viewBox="0 0 28 28"><defs><style>.cls-1{fill:#00bdf2;}</style></defs><title>Ions</title><path class="cls-1" d="M14,4.54a3.11,3.11,0,0,1,2.94,2.72c0,1.15-1.32,1.42-2.94,1.42s-2.94-.27-2.94-1.42A3.11,3.11,0,0,1,14,4.54m0-.84a3.92,3.92,0,0,0-3.78,3.56c0,1.5,1.27,2.26,3.78,2.26s3.78-.76,3.78-2.26A3.92,3.92,0,0,0,14,3.7Z"/><path class="cls-1" d="M14,19.32c1.62,0,2.94.27,2.94,1.42A3.11,3.11,0,0,1,14,23.46a3.11,3.11,0,0,1-2.94-2.72c0-1.15,1.32-1.42,2.94-1.42m0-.84c-2.51,0-3.78.76-3.78,2.26A3.92,3.92,0,0,0,14,24.3a3.92,3.92,0,0,0,3.78-3.56c0-1.5-1.27-2.26-3.78-2.26Z"/><rect class="cls-1" x="13.58" y="7.93" width="0.84" height="11.74"/><ellipse class="cls-1" cx="14" cy="18.89" rx="1.68" ry="1.3"/><ellipse class="cls-1" cx="14" cy="9.11" rx="1.68" ry="1.3"/><ellipse class="cls-1" cx="14" cy="13.65" rx="1.26" ry="0.98"/></svg>