<svg id="Layer_1" data-name="Layer 1" xmlns="http://www.w3.org/2000/svg" viewBox="0 0 28 28"><defs><style>.cls-1{fill:#067292;}.cls-2{fill:#00bdf2;}.cls-3{fill:#455a64;}.cls-4{fill:#f44336;}</style></defs><title>Ions</title><path class="cls-1" d="M21.7,24.42,14.54,6.34A.58.58,0,0,0,14.07,6L3,4.67a.57.57,0,0,0-.65.49v0L0,23.84a.6.6,0,0,0,.51.66h0l20.41,2.33H21a.58.58,0,0,0,.58-.53l.16-1.62A.75.75,0,0,0,21.7,24.42Z"/><path class="cls-2" d="M25.67,5.18A.58.58,0,0,0,25,4.67h0l-5,.59L5.19,7a.59.59,0,0,0-.52.64L6.42,26.3a.59.59,0,0,0,.58.53h.07L27.48,24.5a.6.6,0,0,0,.52-.65h0Z"/><path class="cls-3" d="M16.92,9.33a.57.57,0,0,1-.41-1l2.91-2.92a.58.58,0,0,1,.84.81v0L17.33,9.16A.58.58,0,0,1,16.92,9.33Z"/><circle class="cls-4" cx="21" cy="4.17" r="3"/></svg>