<svg id="Layer_1" data-name="Layer 1" xmlns="http://www.w3.org/2000/svg" viewBox="0 0 28 28"><defs><style>.cls-1,.cls-2{fill:#f15a24;}.cls-1{opacity:0.8;}.cls-3{fill:none;}</style></defs><title>Ions</title><path class="cls-1" d="M19.87,24.73a16.65,16.65,0,0,1-4.73-1.05,6.21,6.21,0,0,0-.89-4.75A6.14,6.14,0,0,1,13,14.65a1.65,1.65,0,0,1,.32-.71,6.83,6.83,0,0,0,2.9,2,2.32,2.32,0,0,0,2.17,1.64,7.83,7.83,0,0,0,1.06,2C21,21.52,19.87,24.73,19.87,24.73Z"/><path class="cls-1" d="M25.77,16.17c-2.48,1.32-2.72-1.11-2.72-1.11a3.91,3.91,0,0,1-1.67-.64,3.16,3.16,0,0,0-.56-1.63l-.43-.65A21.73,21.73,0,0,0,17.8,6.62a9.8,9.8,0,0,1-.13-1.36,8.29,8.29,0,0,1,2.06.25c.14-.81,2.47-2.24,2.47-2.24a4.39,4.39,0,0,0-.33,1.53,3.11,3.11,0,0,1,1-.86,7.43,7.43,0,0,0,0,3.13c1.24,1.24,2.62,5.53,2.62,5.53l.52.76C26.67,14.31,26.43,15.81,25.77,16.17Z"/><path class="cls-2" d="M19.77,16.17a3,3,0,0,1-1.31.39,1.07,1.07,0,0,1-.37,0c-.92-.26-1-1.45-1-1.45-2-.23-3.56-2.51-3.56-2.51-2.76,1.43-1.22,5.44,0,7a5.08,5.08,0,0,1,.74,3.74,8.73,8.73,0,0,1-.33,1.44s-6.55-.28-9.42-4.5S3.6,12.6,3.6,12.6a.22.22,0,0,0-.11,0,6,6,0,0,0-1.89.87c.86-3.14,5.56-5.8,5.56-5.8a1.53,1.53,0,0,0-.41-.05,8.27,8.27,0,0,0-1.58.23,9.13,9.13,0,0,1,6.42-2.58,8.12,8.12,0,0,1,2.14.26c.14-.81,2.47-2.24,2.47-2.24a4.39,4.39,0,0,0-.33,1.53,3.11,3.11,0,0,1,1-.86,3.85,3.85,0,0,0-.19,1.37,11.88,11.88,0,0,0,.19,1.76c1.18,1.18,2.49,5.13,2.6,5.49a.06.06,0,0,1,0,0l.52.76C20.67,14.31,20.43,15.81,19.77,16.17Z"/><path class="cls-3" d="M16.87,3.94h0m2.6,8.62,0,0,.52.76c.67,1,.43,2.45-.23,2.81a2.89,2.89,0,0,1-1.31.4,1.38,1.38,0,0,1-.37,0c-.92-.26-1-1.45-1-1.45-2-.23-3.56-2.52-3.56-2.52-2.76,1.43-1.22,5.45,0,7a5.09,5.09,0,0,1,.74,3.74,8.42,8.42,0,0,1-.33,1.44s-6.55-.27-9.42-4.5-.85-7.63-.85-7.63H3.49a6,6,0,0,0-1.89.87c.86-3.14,5.56-5.8,5.56-5.8a1.18,1.18,0,0,0-.41-.06,8,8,0,0,0-1.58.24,9.13,9.13,0,0,1,6.42-2.58,8.12,8.12,0,0,1,2.14.26c.14-.81,2.47-2.24,2.47-2.24a4.34,4.34,0,0,0-.33,1.52,3,3,0,0,1,1-.85,3.82,3.82,0,0,0-.19,1.37,11.88,11.88,0,0,0,.19,1.76c1.18,1.18,2.49,5.13,2.6,5.49"/></svg>