<svg id="Layer_1" data-name="Layer 1" xmlns="http://www.w3.org/2000/svg" viewBox="0 0 28 28"><defs><style>.cls-1{fill:#29abe2;}</style></defs><title>Ions</title><path class="cls-1" d="M12,6.48c9,2.3,7.32,10.91,7.32,10.91H4.63S2.94,8.78,12,6.48"/><path class="cls-1" d="M11.31,21.19a3.5,3.5,0,0,1-3.6-3.37,3.5,3.5,0,0,1,3.6-3.36,3.49,3.49,0,0,1,3.6,3.36A3.49,3.49,0,0,1,11.31,21.19Zm0-5.42A2.2,2.2,0,0,0,9,17.82a2.2,2.2,0,0,0,2.31,2.06,2.2,2.2,0,0,0,2.31-2.06A2.19,2.19,0,0,0,11.31,15.77Z"/><ellipse class="cls-1" cx="11.21" cy="20.48" rx="1.3" ry="1.32"/><ellipse class="cls-1" cx="11.95" cy="7.06" rx="0.85" ry="0.86"/><path class="cls-1" d="M18.52,17.39c3.29,0,5,.29,5-.28S19,16,19,16"/></svg>