<svg id="Layer_1" data-name="Layer 1" xmlns="http://www.w3.org/2000/svg" viewBox="0 0 28 28"><defs><style>.cls-1{fill:#455c7b;}.cls-2{fill:#fff;}</style></defs><title>Ions</title><path class="cls-1" d="M22.74,15.52l-.67-.65s-2.23-3.95-3.71-4.93c0,0-1.3-2.53-1.45-2a4.67,4.67,0,0,1,0-1.58s-2,1.89-2,2.72a6.07,6.07,0,0,0-1,0,7.73,7.73,0,0,0-1.26.19,9.15,9.15,0,0,0-5.69,3.82,14,14,0,0,0-2.4,6.28s1.13,3.36,7.56,2c3.45-.7,2.61-2.48,3.14-4.16a2.93,2.93,0,0,1,1-1.48,4.09,4.09,0,0,0,.35.39,5,5,0,0,0,3.57,1.68s.73,2.35,2.9.53C23.66,17.86,23.59,16.32,22.74,15.52Z"/><path class="cls-2" d="M17.92,13.76a2.5,2.5,0,0,0-1.32,2.37,4.09,4.09,0,0,1-.35-.39,2.93,2.93,0,0,0-1,1.48c-.22-2.92-1.9-5.48-2.61-8l1.26-.19A3.9,3.9,0,0,0,17,11C18.85,11,19.78,12.83,17.92,13.76Z"/></svg>