<svg id="Layer_1" data-name="Layer 1" xmlns="http://www.w3.org/2000/svg" viewBox="0 0 28 28"><defs><style>.cls-1{fill:#43a838;}.cls-2{fill:#338727;}</style></defs><title>Ions</title><path class="cls-1" d="M2,18H25.09a.25.25,0,0,0,.26-.24c0-.93,0-4.36,1.14-5.66,0,0,0-.09-.06-.07-.55.18-2.19.79-2.6,1.87a0,0,0,0,1-.09,0l-.64-2.18a0,0,0,0,0-.09,0l-.72,1.34a0,0,0,0,1-.08,0l-1.36-1.78a0,0,0,0,0-.09,0l-.63,2.91a.05.05,0,0,1-.1,0L18.89,10a0,0,0,0,0-.09,0l-1,3.17s-.08,0-.1,0l-1.1-2.27s-.08,0-.09,0l-.89,2.73a.05.05,0,0,1-.1,0l-.52-2s-.08,0-.1,0L13.5,14.82a.06.06,0,0,1-.1,0l-1.93-4.2a.05.05,0,0,0-.1,0c.07.81.18,3-.72,4.06a.05.05,0,0,1-.09,0l-1-2.42a.05.05,0,0,0-.1,0l-.79,2.54a.05.05,0,0,1-.09,0c-.29-.47-1.47-2.55-.88-4.42,0,0-1.54,1.87-1.59,3.24a.05.05,0,0,1-.1,0l-.64-1.55a.05.05,0,0,0-.1,0l-.78,2.55a0,0,0,0,1-.09,0,5.81,5.81,0,0,0-2.87-4.16.05.05,0,0,0-.08,0,12.91,12.91,0,0,1,.26,7.17A.24.24,0,0,0,2,18Z"/><path class="cls-2" d="M25.5,17.67a.3.3,0,0,1-.26.33H1.76a.3.3,0,0,1-.25-.39c.1-.55.18-1.08.24-1.6H25.49C25.49,16.45,25.49,17.08,25.5,17.67Z"/></svg>